<?xml version="1.0" encoding="UTF-8" standalone="no"?>
<!-- Generator: Adobe Illustrator 26.5.0, SVG Export Plug-In . SVG Version: 6.00 Build 0)  -->

<svg
   version="1.1"
   x="0px"
   y="0px"
   viewBox="0 0 433.81 156.36"
   xml:space="preserve"
   id="svg33"
   sodipodi:docname="Chore-Time_logo2.svg"
   width="433.81"
   height="156.36"
   inkscape:version="1.1.2 (0a00cf5339, 2022-02-04)"
   xmlns:inkscape="http://www.inkscape.org/namespaces/inkscape"
   xmlns:sodipodi="http://sodipodi.sourceforge.net/DTD/sodipodi-0.dtd"
   xmlns="http://www.w3.org/2000/svg"
   xmlns:svg="http://www.w3.org/2000/svg"><defs
   id="defs37" /><sodipodi:namedview
   id="namedview35"
   pagecolor="#ffffff"
   bordercolor="#666666"
   borderopacity="1.0"
   inkscape:pageshadow="2"
   inkscape:pageopacity="0.0"
   inkscape:pagecheckerboard="0"
   showgrid="false"
   fit-margin-top="0"
   fit-margin-left="0"
   fit-margin-right="0"
   fit-margin-bottom="0"
   inkscape:zoom="1.3765432"
   inkscape:cx="149.287"
   inkscape:cy="60.295964"
   inkscape:window-width="1920"
   inkscape:window-height="1043"
   inkscape:window-x="1920"
   inkscape:window-y="0"
   inkscape:window-maximized="1"
   inkscape:current-layer="svg33" />
<style
   type="text/css"
   id="style2">
	.st0{fill-rule:evenodd;clip-rule:evenodd;fill:#E31937;}
	.st1{fill-rule:evenodd;clip-rule:evenodd;fill:#FFFFFF;}
	.st2{fill:#FFFFFF;}
</style>
<g
   id="Background"
   transform="translate(-28.64,-20.31)">
</g>
<g
   id="Foreground"
   transform="translate(-28.64,-20.31)">
	<path
   class="st0"
   d="m 245.63,176.67 197.24,-22 c 3.8,-1.3 6.7,-4.9 7.5,-8.7 L 462.45,98.54 450.38,51.01 c -0.8,-3.8 -3.7,-7.4 -7.5,-8.7 l -197.24,-22 -197.43,22 c -3.8,1.3 -6.7,4.9 -7.5,8.7 l -12.07,47.53 12.08,47.43 c 0.8,3.8 3.7,7.4 7.5,8.7 z"
   id="path5" />
	<path
   class="st1"
   d="m 328.73,86.22 c -4.4,0.01 -13.68,0.01 -13.68,0.01 v 33.9 h -14.4 v -33.9 l -13.7,-0.03 c -0.02,-3.85 0.05,-8.38 0,-12.24 l 41.8,0.04 z"
   id="path7" />
	<polygon
   class="st1"
   points="331.79,73.99 345.55,73.99 345.55,120.13 331.85,120.13 "
   id="polygon9" />
	<path
   class="st1"
   d="m 368.35,73.99 c 2.5,9.3 4.6,18.7 7.4,27.8 2.6,-9.1 4.5,-18.5 6.7,-27.8 h 19 v 46.14 h -13.88 l -0.02,-24.22 c -2.6,8.4 -4.7,15.54 -6.5,24.24 h -10.8 c -2.2,-7.9 -4.1,-16.36 -6.5,-24.06 l 0.02,24.04 H 349.85 V 73.99 Z"
   id="path11" />
	<path
   class="st1"
   d="m 211.85,86.23 c -5.21,0 -9.51,0 -14.2,0.02 V 92 l 14.18,-0.02 z m 7.7,-12.43 c 2.5,0.7 4.6,2.1 5.7,4.6 0.65,1.99 2.1,11.9 -1.2,16 -0.9,1.1 -2.24,1.93 -3.1,2.7 7.8,4.1 4.1,15.15 5.1,22.95 h -13.76 c 0.04,-5.15 -0.02,-12.7 -0.04,-17.69 h -14.8 v 17.71 l -13.44,-0.02 V 73.79 Z"
   id="path13" />
	<path
   class="st1"
   d="m 267.55,85.93 h -24.11 v 6.11 l 24.15,0.2 -0.04,9.82 -24.11,0.28 c -0.01,1.85 -0.01,4.35 0.02,5.92 h 24.13 v 11.8 h -38.2 V 73.92 h 38.16 z"
   id="path15" />
	<path
   class="st1"
   d="M 166.75,107.6 V 86.3 h -15.1 v 21.3 z M 172.87,74 c 2.4,0.7 5.48,2.8 6.58,5.1 0.32,1.5 0.94,3.03 0.93,4.61 -0.02,8.77 -0.03,16.52 0,26.6 0,1.07 -0.42,2.04 -0.67,3.06 -0.65,2.61 -3.28,6.49 -6.83,6.71 -11.49,0.73 -17.45,-0.03 -26.75,-0.03 -3.5,-0.4 -6.28,-3.45 -7.68,-6.65 l -0.8,-3.1 0.08,-26.61 c 0.32,-1.96 0.57,-2.46 1.57,-4.59 1.25,-1.88 4.61,-5.05 6.91,-5.15 z"
   id="path17" />
	<path
   class="st1"
   d="m 104.7,91.33 15.45,0.01 V 74 h 13.33 l -0.02,46.08 h -13.2 c -0.02,-5.55 0.05,-12.41 0.03,-18.16 l -15.78,-0.02 0.03,18.22 -13.2,-0.02 V 74 h 13.37 z"
   id="path19" />
	<path
   class="st1"
   d="m 87.05,85.93 h -25.9 l -1,0.9 v 20.77 l 1,0.8 h 26.1 v 11.72 l -31.9,-0.02 c -2.9,-0.7 -5.9,-2.1 -7.4,-5 L 47.28,112 47.25,82.03 c 0.8,-2.4 1.9,-5.1 4.3,-6.4 2.1,-0.7 4.1,-1.6 6.5,-1.7 h 29 z"
   id="path21" />
	<rect
   x="274.95001"
   y="91.599998"
   class="st1"
   width="17.5"
   height="10"
   id="rect23" />
	<path
   class="st1"
   d="m 443.86,85.99 h -24.11 l 0.04,6.11 24.08,0.2 v 9.82 l -24,0.28 c -0.2,1.8 0.14,4.38 0.02,5.92 h 24.02 v 11.8 h -38.16 l -0.04,-46.14 h 38.17 v 12.01 z"
   id="path25" />
</g>
<g
   id="Guides"
   transform="translate(-28.64,-20.31)">
	<g
   id="g30">
		<path
   class="st2"
   d="m 434.68,126.26 c 1.48,0 2.93,0.38 4.35,1.14 1.42,0.76 2.52,1.85 3.31,3.27 0.79,1.42 1.18,2.9 1.18,4.44 0,1.53 -0.39,2.99 -1.17,4.4 -0.78,1.41 -1.87,2.5 -3.27,3.28 -1.4,0.78 -2.87,1.17 -4.4,1.17 -1.53,0 -3,-0.39 -4.4,-1.17 -1.4,-0.78 -2.49,-1.87 -3.28,-3.28 -0.78,-1.41 -1.17,-2.87 -1.17,-4.4 0,-1.54 0.4,-3.02 1.19,-4.44 0.79,-1.42 1.9,-2.51 3.31,-3.27 1.41,-0.76 2.86,-1.14 4.35,-1.14 z m 0,1.47 c -1.24,0 -2.45,0.32 -3.63,0.96 -1.18,0.64 -2.09,1.55 -2.76,2.73 -0.66,1.18 -1,2.42 -1,3.7 0,1.27 0.33,2.5 0.98,3.66 0.65,1.17 1.56,2.08 2.73,2.73 1.17,0.65 2.39,0.98 3.67,0.98 1.27,0 2.49,-0.33 3.67,-0.98 1.17,-0.65 2.08,-1.56 2.73,-2.73 0.65,-1.17 0.97,-2.39 0.97,-3.66 0,-1.28 -0.33,-2.52 -0.99,-3.7 -0.66,-1.18 -1.58,-2.1 -2.76,-2.73 -1.17,-0.64 -2.38,-0.96 -3.61,-0.96 z m -3.88,12.28 v -9.53 h 3.28 c 1.12,0 1.93,0.09 2.43,0.26 0.5,0.18 0.9,0.48 1.2,0.92 0.3,0.44 0.45,0.9 0.45,1.4 0,0.7 -0.25,1.3 -0.75,1.82 -0.5,0.52 -1.16,0.81 -1.99,0.87 0.34,0.14 0.61,0.31 0.81,0.51 0.38,0.38 0.85,1.01 1.41,1.89 l 1.16,1.87 h -1.88 l -0.85,-1.5 c -0.67,-1.18 -1.2,-1.92 -1.61,-2.22 -0.28,-0.22 -0.69,-0.33 -1.23,-0.32 h -0.9 v 4.05 h -1.53 z m 1.53,-5.36 h 1.88 c 0.9,0 1.51,-0.13 1.84,-0.4 0.33,-0.27 0.49,-0.62 0.49,-1.06 0,-0.28 -0.08,-0.53 -0.24,-0.76 -0.16,-0.22 -0.38,-0.39 -0.66,-0.5 -0.28,-0.11 -0.8,-0.16 -1.55,-0.16 h -1.76 z"
   id="path28" />
	</g>
</g>
</svg>
