<?xml version="1.0" encoding="utf-8"?>
<!-- Generator: Adobe Illustrator 23.0.4, SVG Export Plug-In . SVG Version: 6.00 Build 0)  -->
<svg version="1.1" id="Laag_1" xmlns="http://www.w3.org/2000/svg" xmlns:xlink="http://www.w3.org/1999/xlink" x="0px" y="0px"
     viewBox="0 0 842 209" style="enable-background:new 0 0 842 209;" xml:space="preserve">
<style type="text/css">
	.st0{fill-rule:evenodd;clip-rule:evenodd;fill:#EF3E33;}
	.st1{fill-rule:evenodd;clip-rule:evenodd;}
	.st2{fill-rule:evenodd;clip-rule:evenodd;stroke:#000000;stroke-width:0.216;stroke-linecap:square;stroke-miterlimit:10;}
</style>
    <rect x="43.2" y="173.7" class="st0" width="715.7" height="6.3"/>
    <path class="st1" d="M244.2,34.2c21.7,1,47,7,48.9,32.6c1.2,16.3-7.7,28.8-22.8,34.3l23,43.6l-42.6-0.1l-6.6-15.3V83.1h2.5
	c4.3,0,5.8-5.9,5.8-11.2c0-4.8-3.7-6.3-8.3-6.6V34.2z M193.5,144.7l12.7-109.8l23.2-0.7c4.5-0.1,9.6-0.2,14.8,0v31.1
	c-2.2-0.1-4.5-0.1-6.8-0.1l-1.4,17.9h8.3v46.2l-9.5-22.4l-4.5,37.9H193.5z"/>
    <path class="st1" d="M355.2,111.7c13.4,0.3,18.4-12.8,18.4-22.7c0-9.6-8-20.2-18.4-20.2l0,0V29.4c7.9,0.1,14.8,1.9,21.7,4.8
	c7.1,3,13.7,6.9,19.2,12.5c5.4,5.5,9.8,11.7,12.7,18.8c2.8,7.1,4.6,14.9,4.6,23.3c0,8.3-1.9,16.3-4.7,23.5
	c-2.8,7.1-7.1,13.2-12.7,18.7c-5.5,5.5-11.6,9.7-18.7,12.7c-7,2.8-14.3,4.3-22.1,4.4V111.7z M354.5,111.6c0.3,0.1,0.5,0.1,0.8,0.1
	V148c-0.3,0-0.5,0-0.8,0c-8.1,0-15.8-1.4-22.9-4.4c-7.2-3-13.5-7.2-19-12.8c-5.4-5.5-10-11.4-12.7-18.4c-2.8-7.1-4.8-15-4.8-23.5
	c0-8.4,1.7-15.8,4.5-22.9c2.8-7.1,7.7-14,13.1-19.5c5.5-5.5,11.6-9.6,18.8-12.5c7.1-2.9,14.8-4.5,23-4.5c0.3,0,0.5,0,0.8,0v39.3
	c-10.7,0-18.4,10.4-18.4,20.4C336.8,98.8,342.3,110.9,354.5,111.6z"/>
    <path class="st2" d="M473,35.6h45.4l-36.5,49l35,58.7h-45.3L457,115.2l-16.2,28.1h-44.9c12-19.9,27.9-37.4,40.6-57.4
	c-10.2-16.9-18.7-34.6-30.5-51h45.1l10.3,22L473,35.6z"/>
    <path class="st2" d="M598.7,62.7h-35.1l-1.4,11.2l35.6,0.2c-1.4,10.5-1.4,16.6-2.8,27.4h-34.3l-1.5,11.3h36.5l-1.4,30.3h-74.7
	c2.2-38.3,4.1-72.3,6.9-108.9h74.1L598.7,62.7z"/>
    <polygon class="st2" points="679,106.3 676.2,142.8 603,143.1 610.3,34.4 649.7,34.4 645.4,106.3 "/>
    <polygon class="st2" points="760.4,106.3 757.5,143.1 682.8,143.1 690.3,34.4 729.6,34.4 725.3,106.3 "/>
    <path class="st0" d="M168.4,47.9c5.5-11.2,22.7-15.3,37.9-13.1l-48.2,99.4c-5.3,9.3-25,10.3-35,10.2
	C138.3,112.4,151.8,79.6,168.4,47.9z"/>
    <path class="st0" d="M129.2,47.9c5.5-11.2,22.7-15.3,37.9-13.1l-48.2,99.4c-5.3,9.3-25.1,10.3-35,10.2
	C99,112.4,112.5,79.6,129.2,47.9z"/>
    <path class="st0" d="M89.4,47.9c5.5-11.2,22.7-15.3,37.9-13.1l-48.2,99.4c-5.4,9.3-25.1,10.3-35.1,10.2
	C59.2,112.4,72.7,79.6,89.4,47.9z"/>
    <path class="st1" d="M773.6,22.8c9.6,0,17.1,7.7,17.1,17.3s-7.6,17.1-17.1,17.1v-4c7.3,0,13.1-5.4,13.1-13.1S781,27,773.6,27V22.8
	L773.6,22.8z M773.6,41.5l4,7.3h4.2l-4.2-7.5c3.1-0.3,4.8-1.5,4.8-4.9c0-4.8-2.8-5.5-6.8-5.5h-1.9V34h1c1.7,0,4,0,4,1.9
	c0,2.3-1.1,2.7-3.1,2.7h-1.9V41.5z M756.5,40.1c0-9.6,7.6-17.3,17.1-17.3V27c-7.5,0-13.1,5.4-13.1,13.1s5.6,13.1,13.1,13.1v4
	C764.1,57.2,756.5,49.7,756.5,40.1L756.5,40.1z M773.6,31h-6.9v17.9h4.1v-7.5h2.7l0.1,0.2v-2.9h-2.8V34h2.8V31z"/>
</svg>
