<svg id="Capa_1" data-name="Capa 1" xmlns="http://www.w3.org/2000/svg" xmlns:xlink="http://www.w3.org/1999/xlink" viewBox="0 0 279.21 113.94"><defs><style>.cls-1{fill:url(#linear-gradient);}.cls-2{fill:url(#linear-gradient-3);}.cls-3{fill:url(#linear-gradient-4);}.cls-4{fill:url(#linear-gradient-5);}.cls-5{fill:url(#linear-gradient-6);}.cls-6{fill:url(#linear-gradient-7);}.cls-7{fill:url(#linear-gradient-13);}.cls-8{fill:url(#linear-gradient-14);}.cls-9{fill:url(#linear-gradient-15);}.cls-10{fill:url(#linear-gradient-16);}.cls-11{fill:url(#linear-gradient-17);}.cls-12{fill:url(#linear-gradient-18);}.cls-13{fill:url(#linear-gradient-19);}.cls-14{fill:url(#linear-gradient-20);}.cls-15{fill:url(#linear-gradient-21);}.cls-16{fill:url(#linear-gradient-22);}</style><linearGradient id="linear-gradient" x1="156.52" y1="95.24" x2="265.52" y2="95.24" gradientUnits="userSpaceOnUse"><stop offset="0" stop-color="#3c3c3b"/><stop offset="1" stop-color="#575756"/></linearGradient><linearGradient id="linear-gradient-3" x1="129.31" y1="95.11" x2="328.43" y2="95.11" xlink:href="#linear-gradient"/><linearGradient id="linear-gradient-4" x1="164.58" y1="102.4" x2="273.58" y2="102.4" xlink:href="#linear-gradient"/><linearGradient id="linear-gradient-5" x1="164.58" y1="100.44" x2="273.58" y2="100.44" xlink:href="#linear-gradient"/><linearGradient id="linear-gradient-6" x1="164.58" y1="102.55" x2="273.58" y2="102.55" xlink:href="#linear-gradient"/><linearGradient id="linear-gradient-7" x1="164.58" y1="100.52" x2="273.58" y2="100.52" xlink:href="#linear-gradient"/><linearGradient id="linear-gradient-13" x1="122.82" y1="112.85" x2="279.21" y2="112.85" gradientUnits="userSpaceOnUse"><stop offset="0" stop-color="#a12d34"/><stop offset="1" stop-color="#682730"/></linearGradient><linearGradient id="linear-gradient-14" x1="124.39" y1="99.04" x2="133.52" y2="99.04" xlink:href="#linear-gradient-13"/><linearGradient id="linear-gradient-15" x1="135.68" y1="101.83" x2="145.86" y2="101.83" xlink:href="#linear-gradient-13"/><linearGradient id="linear-gradient-16" x1="222.02" y1="40.32" x2="279.21" y2="40.32" xlink:href="#linear-gradient-13"/><linearGradient id="linear-gradient-17" x1="0" y1="41.71" x2="39.76" y2="41.71" xlink:href="#linear-gradient"/><linearGradient id="linear-gradient-18" x1="45.76" y1="9.28" x2="64.32" y2="9.28" xlink:href="#linear-gradient"/><linearGradient id="linear-gradient-19" x1="67.81" y1="60.07" x2="118.99" y2="60.07" xlink:href="#linear-gradient"/><linearGradient id="linear-gradient-20" x1="122.82" y1="47.86" x2="162.86" y2="47.86" xlink:href="#linear-gradient"/><linearGradient id="linear-gradient-21" x1="169.33" y1="47.86" x2="211.81" y2="47.86" xlink:href="#linear-gradient"/><linearGradient id="linear-gradient-22" x1="47.23" y1="48.25" x2="62.27" y2="48.25" xlink:href="#linear-gradient"/></defs><path class="cls-1" d="M158.35,106.45h-5.12V84h7.6a10.39,10.39,0,0,1,3.78.61,7,7,0,0,1,2.5,1.63,6,6,0,0,1,1.38,2.35,9.41,9.41,0,0,1,0,5.56,6,6,0,0,1-1.38,2.35,6.83,6.83,0,0,1-2.5,1.63,10.17,10.17,0,0,1-3.78.62h-2.48Zm0-12.62h2.51a3.72,3.72,0,0,0,1.41-.22,2.07,2.07,0,0,0,.82-.59,2,2,0,0,0,.39-.79,3.58,3.58,0,0,0,.1-.85,3.53,3.53,0,0,0-.1-.85,1.91,1.91,0,0,0-1.21-1.38,3.72,3.72,0,0,0-1.41-.22h-2.51Z"/><path class="cls-1" d="M175.74,106.14a7.16,7.16,0,0,1-2.86-2.41,10.05,10.05,0,0,1-1.52-3.72,25.51,25.51,0,0,1,0-9.54,10,10,0,0,1,1.52-3.73,7.24,7.24,0,0,1,2.86-2.41,10.29,10.29,0,0,1,4.41-.85,23,23,0,0,1,4,.32,12,12,0,0,1,3,.91v5.23c-.86-.34-1.62-.61-2.29-.82a17.44,17.44,0,0,0-1.84-.48,12,12,0,0,0-1.54-.21c-.47,0-.92,0-1.36,0a3.51,3.51,0,0,0-1.94.49A3.62,3.62,0,0,0,177,90.27a7,7,0,0,0-.69,2.16,17,17,0,0,0-.21,2.81,17.2,17.2,0,0,0,.21,2.81,7,7,0,0,0,.69,2.15,3.62,3.62,0,0,0,1.26,1.39,3.52,3.52,0,0,0,1.94.5c.4,0,.8,0,1.21,0s.81-.07,1.21-.13V98.05h-4V93.11h9v12.24a20.73,20.73,0,0,1-3.37,1.16,16.44,16.44,0,0,1-4.11.48A10.14,10.14,0,0,1,175.74,106.14Z"/><path class="cls-2" d="M202.54,93a6.29,6.29,0,0,1,2.29,1.19,4.74,4.74,0,0,1,1.4,2,8.93,8.93,0,0,1,.47,3.11,9.53,9.53,0,0,1-.39,2.67,5.9,5.9,0,0,1-1.36,2.42,7.07,7.07,0,0,1-2.68,1.73,12.06,12.06,0,0,1-4.33.66,15.49,15.49,0,0,1-1.66-.11q-.94-.12-1.92-.33c-.65-.14-1.27-.3-1.87-.47a9.6,9.6,0,0,1-1.48-.57v-5.2c.28.15.66.34,1.14.56a12.68,12.68,0,0,0,1.66.6,17.77,17.77,0,0,0,2,.48,12,12,0,0,0,2.16.19,6,6,0,0,0,1.72-.21,2.87,2.87,0,0,0,1.09-.56,2,2,0,0,0,.59-.83,2.77,2.77,0,0,0,.18-1,1.6,1.6,0,0,0-.68-1.45,5.46,5.46,0,0,0-2.28-.63,20.53,20.53,0,0,1-3.52-.71,6.28,6.28,0,0,1-2.35-1.22,4.47,4.47,0,0,1-1.31-1.94,9,9,0,0,1-.4-2.84,9.65,9.65,0,0,1,.32-2.39,5.59,5.59,0,0,1,1.18-2.26,6.29,6.29,0,0,1,2.46-1.7,10.52,10.52,0,0,1,4.09-.67,17.08,17.08,0,0,1,3.6.37,15.46,15.46,0,0,1,3,1v5.27q-1.22-.56-2.16-.9a17.75,17.75,0,0,0-1.71-.53,8.35,8.35,0,0,0-1.42-.25c-.44,0-.86-.06-1.28-.06a5.5,5.5,0,0,0-1.49.17,2.49,2.49,0,0,0-.92.48,1.43,1.43,0,0,0-.46.69,2.86,2.86,0,0,0-.12.82,1.26,1.26,0,0,0,.83,1.28,10.15,10.15,0,0,0,2.43.55A19.27,19.27,0,0,1,202.54,93Z"/><path class="cls-3" d="M212,100.54a7,7,0,0,0-.91.06c-.31,0-.6.08-.88.13s-.52.12-.74.19a3.8,3.8,0,0,0-.51.19V98.55a2.51,2.51,0,0,1,.52-.19,6.43,6.43,0,0,1,.74-.15c.27,0,.56-.08.86-.11a8.71,8.71,0,0,1,.87,0,5.34,5.34,0,0,1,1.69.23,2.5,2.5,0,0,1,1,.65,2.25,2.25,0,0,1,.52,1,5,5,0,0,1,.15,1.26v5.26h-1.72l-.08-.26a2.27,2.27,0,0,1-.52.23c-.19.06-.39.12-.61.17a4.48,4.48,0,0,1-.62.11,4,4,0,0,1-.58,0,3.57,3.57,0,0,1-1.46-.26,2.51,2.51,0,0,1-.89-.68,2.37,2.37,0,0,1-.45-.93,4.32,4.32,0,0,1-.12-1,2.76,2.76,0,0,1,.26-1.29,2.09,2.09,0,0,1,.68-.76,2.93,2.93,0,0,1,1-.39,11,11,0,0,1,1.17-.19l1.36-.14V101a.51.51,0,0,0-.16-.34A.83.83,0,0,0,212,100.54Zm-.65,2.62a.77.77,0,0,0-.43.18.54.54,0,0,0-.17.42.61.61,0,0,0,.16.39.59.59,0,0,0,.48.18,2.21,2.21,0,0,0,.81-.14l.55-.23V103Z"/><path class="cls-4" d="M219.78,106.58a3.14,3.14,0,0,1-1-.14A2.38,2.38,0,0,1,218,106a1.73,1.73,0,0,1-.53-.71,2.47,2.47,0,0,1-.2-1v-10h2.58v9.32a.45.45,0,0,0,.13.35.79.79,0,0,0,.53.13v2.48Z"/><path class="cls-5" d="M228,106.45l-.08-.26a5.09,5.09,0,0,1-1.23.42,6.61,6.61,0,0,1-1.28.13,4.19,4.19,0,0,1-1.58-.25,2.33,2.33,0,0,1-1-.68,2.48,2.48,0,0,1-.51-1,5.06,5.06,0,0,1-.15-1.26V98.35h2.61v5a.89.89,0,0,0,.23.65,1,1,0,0,0,.7.23,3.73,3.73,0,0,0,.46,0l.43-.06a1.86,1.86,0,0,0,.32-.08l.18-.07V98.35h2.61v8.1Z"/><path class="cls-6" d="M237.37,106.45l-.08-.26a2.22,2.22,0,0,1-.41.22,3.94,3.94,0,0,1-.55.18,3.84,3.84,0,0,1-.59.11,4.55,4.55,0,0,1-3.51-1,6.46,6.46,0,0,1,0-6.58,3.68,3.68,0,0,1,3-1,3.93,3.93,0,0,1,.65.06,4,4,0,0,1,.66.15v-4h2.6v12.15Zm-.88-5.8a5.57,5.57,0,0,0-1.26-.18,1.11,1.11,0,0,0-1,.53,3.42,3.42,0,0,0,0,2.8,1.11,1.11,0,0,0,1,.53,5.57,5.57,0,0,0,1.26-.18Z"/><path class="cls-3" d="M244.34,100.54a7.11,7.11,0,0,0-.92.06c-.31,0-.6.08-.87.13s-.53.12-.75.19a3.8,3.8,0,0,0-.51.19V98.55a2.42,2.42,0,0,1,.53-.19,6.24,6.24,0,0,1,.73-.15c.27,0,.56-.08.86-.11s.6,0,.88,0a5.28,5.28,0,0,1,1.68.23,2.61,2.61,0,0,1,1,.65,2.36,2.36,0,0,1,.52,1,5.46,5.46,0,0,1,.14,1.26v5.26H246l-.09-.26a2.39,2.39,0,0,1-.51.23l-.61.17a4.62,4.62,0,0,1-.63.11,3.86,3.86,0,0,1-.58,0,3.6,3.6,0,0,1-1.46-.26,2.6,2.6,0,0,1-.89-.68,2.49,2.49,0,0,1-.44-.93,4.32,4.32,0,0,1-.12-1,2.77,2.77,0,0,1,.25-1.29,2.18,2.18,0,0,1,.68-.76,3,3,0,0,1,1-.39,11,11,0,0,1,1.17-.19l1.36-.14V101a.47.47,0,0,0-.16-.34A.81.81,0,0,0,244.34,100.54Zm-.65,2.62a.81.81,0,0,0-.44.18.54.54,0,0,0-.16.42.6.6,0,0,0,.15.39.59.59,0,0,0,.48.18,2.21,2.21,0,0,0,.81-.14l.55-.23V103Z"/><path class="cls-6" d="M249.37,106.45V94.3H252v4a4,4,0,0,1,.66-.15,3.93,3.93,0,0,1,.65-.06,3.68,3.68,0,0,1,3,1,6.46,6.46,0,0,1,0,6.58,3.68,3.68,0,0,1-3,1,3.78,3.78,0,0,1-.56,0,3.84,3.84,0,0,1-.59-.11,3.94,3.94,0,0,1-.55-.18,2.22,2.22,0,0,1-.41-.22l-.08.26Zm2.6-2.3a5.57,5.57,0,0,0,1.26.18,1.11,1.11,0,0,0,1-.53,3.42,3.42,0,0,0,0-2.8,1.11,1.11,0,0,0-1-.53,5.57,5.57,0,0,0-1.26.18Z"/><path class="cls-4" d="M261.46,106.58a3,3,0,0,1-1-.14,2.33,2.33,0,0,1-.8-.41,1.92,1.92,0,0,1-.53-.71,2.47,2.47,0,0,1-.2-1v-10h2.58v9.32a.45.45,0,0,0,.14.35.74.74,0,0,0,.52.13v2.48Z"/><path class="cls-3" d="M267.42,104.27a10,10,0,0,0,1.56-.08,12.18,12.18,0,0,0,1.76-.33v2.45a5.82,5.82,0,0,1-.8.21c-.29.06-.57.11-.85.14s-.55.06-.82.07h-.69a4.64,4.64,0,0,1-1.82-.31,2.86,2.86,0,0,1-1.17-.89,3.64,3.64,0,0,1-.63-1.38,8.07,8.07,0,0,1-.18-1.76,7,7,0,0,1,.2-1.76,3.56,3.56,0,0,1,.65-1.37,3,3,0,0,1,1.18-.89,4.39,4.39,0,0,1,1.76-.32,3.94,3.94,0,0,1,1.81.36,2.66,2.66,0,0,1,1.08,1,4.13,4.13,0,0,1,.52,1.39,9.45,9.45,0,0,1,.13,1.63v.81h-4.73a1.42,1.42,0,0,0,.28.71A1,1,0,0,0,267.42,104.27Zm.11-3.81a1.09,1.09,0,0,0-.8.29,1.12,1.12,0,0,0-.33.68h2.09a1.08,1.08,0,0,0-.22-.69A.86.86,0,0,0,267.53,100.46Z"/><path class="cls-3" d="M278.89,101.15a5.07,5.07,0,0,0-.57-.2l-.75-.2a5.49,5.49,0,0,0-.79-.15,4.37,4.37,0,0,0-.68-.06,1.53,1.53,0,0,0-.74.13c-.15.09-.23.19-.23.31a.27.27,0,0,0,.17.23,1.64,1.64,0,0,0,.58.12,10.63,10.63,0,0,1,1.56.25,3,3,0,0,1,1,.47,1.7,1.7,0,0,1,.57.73,2.92,2.92,0,0,1,.17,1.08A3.16,3.16,0,0,1,279,105a2.2,2.2,0,0,1-.63.91,3.3,3.3,0,0,1-1.13.63,5.14,5.14,0,0,1-1.67.23,5.4,5.4,0,0,1-.77,0c-.29,0-.58-.07-.86-.12l-.79-.17a2.56,2.56,0,0,1-.53-.19V103.6c.17.08.38.15.64.24s.52.15.79.21a7.78,7.78,0,0,0,.84.16,5.52,5.52,0,0,0,.77.06,1.68,1.68,0,0,0,.75-.13.37.37,0,0,0,.22-.31.26.26,0,0,0-.17-.24,1.53,1.53,0,0,0-.57-.12,9.1,9.1,0,0,1-1.56-.25,3,3,0,0,1-1-.46,1.72,1.72,0,0,1-.57-.74,2.91,2.91,0,0,1-.18-1.08,3.25,3.25,0,0,1,.2-1.11,2.27,2.27,0,0,1,.63-.91,3.35,3.35,0,0,1,1.12-.63,5.45,5.45,0,0,1,1.68-.23,6.08,6.08,0,0,1,.71,0c.25,0,.5.06.75.11a6.61,6.61,0,0,1,.7.15,4.83,4.83,0,0,1,.53.17Z"/><rect class="cls-7" x="122.82" y="111.76" width="156.4" height="2.18"/><path class="cls-8" d="M128.28,94.26v2.92a3,3,0,0,1,2.22-1.05,2.61,2.61,0,0,1,2.19,1.1,4.63,4.63,0,0,1,.83,2.89,4.73,4.73,0,0,1-.94,3.09,3.05,3.05,0,0,1-2.51,1.15,2.91,2.91,0,0,1-2.48-1.23,3.29,3.29,0,0,1,0,.38c0,.48-.29.71-.85.71a.78.78,0,0,1-.88-.89v-7c0-.53-.09-.79-.26-.79a.83.83,0,0,0-.27.06.78.78,0,0,1-.24,0c-.48,0-.73-.28-.73-.85a1.08,1.08,0,0,1,.26-.74.88.88,0,0,1,.68-.29,5.78,5.78,0,0,1,.59,0,5.22,5.22,0,0,0,.59,0,6.44,6.44,0,0,0,.81,0,5.17,5.17,0,0,1,.53,0C128.14,93.72,128.28,93.9,128.28,94.26Zm1.42,8.14c.89,0,1.34-.72,1.34-2.16s-.44-2.15-1.31-2.15a1.22,1.22,0,0,0-1,.6,2.74,2.74,0,0,0-.41,1.54C128.28,101.68,128.75,102.4,129.7,102.4Z"/><path class="cls-9" d="M139.88,98.67l1.05,3.32,1-3.18a2,2,0,0,0,.12-.55c0-.12-.08-.21-.25-.27l-.27-.1c-.22-.09-.33-.3-.33-.65a.93.93,0,0,1,.23-.64.7.7,0,0,1,.56-.26,6.41,6.41,0,0,1,.71.06,4.84,4.84,0,0,0,.71.07,5.29,5.29,0,0,0,.74-.07,6.64,6.64,0,0,1,.74-.06c.61,0,.92.34.92,1a1.05,1.05,0,0,1-.2.63.63.63,0,0,1-.51.27l-.2,0-.21,0c-.19,0-.34.15-.45.46l-.2.54-1.33,3.46c-.41,1.07-.69,1.76-.85,2.08a6.24,6.24,0,0,1-.69,1,3.71,3.71,0,0,1-3,1.55,3,3,0,0,1-1.81-.52,1.61,1.61,0,0,1-.71-1.34,1.31,1.31,0,0,1,.37-.94,1.23,1.23,0,0,1,.91-.36,1.09,1.09,0,0,1,.78.29,1,1,0,0,1,.29.73v.34a.92.92,0,0,0,.38.09,1,1,0,0,0,.78-.49,1.51,1.51,0,0,0,.36-.83,6.09,6.09,0,0,0-.52-1.55l-1.73-4.07c-.12-.29-.24-.43-.37-.43h-.37q-.78,0-.78-.87a1,1,0,0,1,.27-.73.86.86,0,0,1,.67-.3,6.5,6.5,0,0,1,.73.06,5.06,5.06,0,0,0,.73.07c.2,0,.53,0,1-.07l.74-.06c.57,0,.85.3.85.9a.69.69,0,0,1-.65.74c-.22,0-.32.12-.32.28A1.61,1.61,0,0,0,139.88,98.67Z"/><path class="cls-10" d="M279.21,73.59H250.45V70.27a1.41,1.41,0,0,1,1.2-1.38l10.74-1.54V63.47a5.62,5.62,0,0,1-4.85-3.21l-3.09-6.5,3-.93c2.05-1,2.39-2.9,2.41-4.71H256.3a6.11,6.11,0,0,0-3.74,1.6l-.66.62-.72-.56a11.9,11.9,0,0,0-4.6-2.21l-1-.22.07-.45h-1.85l-.16.37H224.21a9.56,9.56,0,0,0-1,0l-1.16.11V19.24L251.88,7,279.09,23.4Zm-26.64-2.12H277L277,24.62,251.7,9.41,224.14,20.66V45.14H241.8l-.24-.31c-.27-.07-.53-.16-.79-.25a10.1,10.1,0,0,1-6-13,1.66,1.66,0,0,1,2.16-1,9.79,9.79,0,0,0,6.8-.13,11.77,11.77,0,0,0,3.63-2.11,1.69,1.69,0,0,1,.21-1.55,1.66,1.66,0,0,1,1.33-.7,1.69,1.69,0,0,1,.67-.6,1.66,1.66,0,0,1,1.36-.06,1.77,1.77,0,0,1,1-.29,1.71,1.71,0,0,1,1.18.5,3,3,0,0,1,.22.28,1.73,1.73,0,0,1,.49.08,1.68,1.68,0,0,1,1.06,2.12l-.07.21.06.11L256,30.63a1.67,1.67,0,0,1-.79,2.28l-1.34.62a7.15,7.15,0,0,1,.1,4.37,6.45,6.45,0,0,1-.21.62,10.08,10.08,0,0,1-7,6.34,1.71,1.71,0,0,1,.94.81,14.2,14.2,0,0,1,4.09,1.93,8.21,8.21,0,0,1,4.44-1.6H260A1.92,1.92,0,0,1,262,47.91c0,2.2-.38,5.3-3.66,6.85l-.23.09-.65.21,2,4.29a3.47,3.47,0,0,0,3.14,2,1.92,1.92,0,0,1,1.92,1.92v4.26a1.93,1.93,0,0,1-1.65,1.9l-10.3,1.47Zm-4.71-24.71v0Zm-2.06-.54h0Zm-3-3.2,1.09,0a8,8,0,0,0,7.8-5.26l.16-.49a4.92,4.92,0,0,0-.38-3.79l-.55-1,2.9-1.35L253,29.41a1.75,1.75,0,0,0-.18-.29l-.27-.36-.85-.42-.5,0h-.43l-.75.34-.38.44a12.56,12.56,0,0,1-5.12,3.33,12,12,0,0,1-7.85.28,8,8,0,0,0,4.87,9.86c.3.11.61.2.92.28l.37.08Z"/><path class="cls-11" d="M38,73.16c-1.1.32-6.18.55-7.58.68s-2.49.19-3.27.19Q16.91,74,12.4,69.44T7.91,56.26V37.9H0V24.43l7.91-.5V9.38H23.44V23.44H39.76V37.9H23.44V55.38q0,3.61,3.81,3.61c.72,0,1.76-.05,3.13-.14s6.45-.31,7.62-.64Z"/><path class="cls-12" d="M48.4,2.69a9.48,9.48,0,0,1,13.23,0,9,9,0,0,1,2.69,6.59,8.92,8.92,0,0,1-2.69,6.64A9.26,9.26,0,0,1,45.76,9.28,9,9,0,0,1,48.4,2.69Z"/><path class="cls-13" d="M108.44,56.31q-5,5.22-16.7,5.22H89.1a1.37,1.37,0,0,0-.44.74,4.34,4.34,0,0,0,0,.53,1.29,1.29,0,0,0,.15.59.84.84,0,0,0,.63.39l15.34,1.86a27.38,27.38,0,0,1,6.4,1.36,12.6,12.6,0,0,1,4.44,2.64,10,10,0,0,1,2.59,4.2A20,20,0,0,1,119,80a14.72,14.72,0,0,1-2.35,8.4,18.61,18.61,0,0,1-6.15,5.77,28.93,28.93,0,0,1-8.69,3.27,49.12,49.12,0,0,1-10.06,1A59.54,59.54,0,0,1,82,97.72a22.34,22.34,0,0,1-7.52-2.54,13.25,13.25,0,0,1-4.88-4.78A14.25,14.25,0,0,1,67.81,83a11.36,11.36,0,0,1,2-6.79,18.36,18.36,0,0,1,5-4.73,10.83,10.83,0,0,1-1.66-6.06A10.32,10.32,0,0,1,74.11,61a12.22,12.22,0,0,1,2.39-3.42A14.43,14.43,0,0,1,71.67,51a26.37,26.37,0,0,1-1.52-9.37q0-9.48,5-14.7t16.56-5.23a30.27,30.27,0,0,1,11.13,1.76h15V35.06L113,36.53c.13.78.23,1.6.29,2.44s.1,1.73.1,2.64Q113.42,51.08,108.44,56.31Zm-20.71,21q-4.2,1.36-4.2,3.9c0,.92.67,1.53,2,1.86a29.4,29.4,0,0,0,6.39.49c1.5,0,2.92-.05,4.25-.15a22.8,22.8,0,0,0,3.52-.49,6.47,6.47,0,0,0,2.39-1,1.92,1.92,0,0,0,.88-1.61c0-.79-.68-1.27-2-1.47ZM97.06,37.6c-.88-1.1-2.65-1.66-5.32-1.66s-4.35.56-5.23,1.66a6.74,6.74,0,0,0,0,8q1.32,1.66,5.23,1.66t5.32-1.66a6.74,6.74,0,0,0,0-8Z"/><path class="cls-14" d="M160.91,40.34a26.06,26.06,0,0,0-3.42-1.22c-1.43-.43-3-.83-4.54-1.22s-3.18-.7-4.74-.93a28.52,28.52,0,0,0-4.1-.34,9.53,9.53,0,0,0-4.49.78,2.2,2.2,0,0,0-1.37,1.85,1.6,1.6,0,0,0,1,1.42,9.76,9.76,0,0,0,3.47.73,56.53,56.53,0,0,1,9.43,1.52,17.94,17.94,0,0,1,6.2,2.78,10.23,10.23,0,0,1,3.42,4.44,17.69,17.69,0,0,1,1.07,6.5,19.22,19.22,0,0,1-1.17,6.69,13.54,13.54,0,0,1-3.81,5.52,19.6,19.6,0,0,1-6.79,3.76A31.69,31.69,0,0,1,141,74a40.69,40.69,0,0,1-4.64-.29c-1.72-.19-3.45-.45-5.17-.78s-3.31-.67-4.74-1a14.29,14.29,0,0,1-3.22-1.13V55.09c1,.45,2.32.92,3.86,1.41s3.12.93,4.78,1.32,3.34.7,5,.93a35,35,0,0,0,4.69.34,9.56,9.56,0,0,0,4.49-.78,2.22,2.22,0,0,0,1.37-1.86,1.6,1.6,0,0,0-1-1.41,9.69,9.69,0,0,0-3.46-.73,56.35,56.35,0,0,1-9.43-1.52,17.94,17.94,0,0,1-6.2-2.78,10.2,10.2,0,0,1-3.42-4.45,17.4,17.4,0,0,1-1.07-6.49A19.14,19.14,0,0,1,124,32.38a13.54,13.54,0,0,1,3.81-5.52,19.6,19.6,0,0,1,6.79-3.76,31.58,31.58,0,0,1,10.11-1.42,41.09,41.09,0,0,1,4.24.25c1.53.16,3.05.37,4.55.63s2.91.57,4.24.93a25.51,25.51,0,0,1,3.18,1Z"/><path class="cls-15" d="M191.69,36.63a44.65,44.65,0,0,0-5.51.34c-1.86.23-3.62.5-5.28.83a42.63,42.63,0,0,0-4.49,1.12,29.41,29.41,0,0,0-3.08,1.13V24.61a17.48,17.48,0,0,1,3.18-1.12,43,43,0,0,1,4.44-.93c1.63-.26,3.35-.47,5.18-.63s3.58-.25,5.27-.25a31,31,0,0,1,10.16,1.42A14.89,14.89,0,0,1,207.81,27,13.68,13.68,0,0,1,210.93,33a30.65,30.65,0,0,1,.88,7.57V72.28H201.46L201,70.71a16.65,16.65,0,0,1-3.12,1.37c-1.17.39-2.4.73-3.67,1s-2.52.52-3.76.68a27.37,27.37,0,0,1-3.51.24,20.61,20.61,0,0,1-8.79-1.61,14.47,14.47,0,0,1-5.37-4.1,14.15,14.15,0,0,1-2.69-5.57,25.75,25.75,0,0,1-.73-6A16.38,16.38,0,0,1,170.89,49a12.35,12.35,0,0,1,4.1-4.54,17.41,17.41,0,0,1,6-2.39,71.09,71.09,0,0,1,7-1.13l8.21-.87v-.4a2.93,2.93,0,0,0-1-2C194.56,37,193.39,36.63,191.69,36.63Zm-3.9,15.82a4.68,4.68,0,0,0-2.64,1.07,3.26,3.26,0,0,0-1,2.54,3.52,3.52,0,0,0,.93,2.35A3.63,3.63,0,0,0,188,59.48a12.9,12.9,0,0,0,4.89-.83c1.36-.55,2.47-1,3.32-1.41V51.67Z"/><rect class="cls-16" x="47.23" y="23.44" width="15.04" height="49.62"/></svg>